<svg xmlns="http://www.w3.org/2000/svg" viewBox="0 0 64 64" width="64" height="64" aria-label="Jharkhand Government Logo">
  <defs>
    <linearGradient id="g" x1="0" y1="0" x2="1" y2="1">
      <stop offset="0%" stop-color="#34d399"/>
      <stop offset="100%" stop-color="#059669"/>
    </linearGradient>
  </defs>
  <rect x="4" y="4" width="56" height="56" rx="12" fill="url(#g)"/>
  <circle cx="32" cy="32" r="18" fill="#fff" opacity="0.95"/>
  <path d="M32 18l3.5 7.5L44 27l-6 5.5L39 40l-7-3.5L25 40l1-7.5L20 27l8.5-1.5z" fill="#10b981"/>
</svg>
<svg xmlns="http://www.w3.org/2000/svg" viewBox="0 0 64 64" width="64" height="64" aria-label="Jharkhand Government Logo">
  <defs>
    <linearGradient id="g" x1="0" y1="0" x2="1" y2="1">
      <stop offset="0%" stop-color="#34d399"/>
      <stop offset="100%" stop-color="#059669"/>
    </linearGradient>
  </defs>
  <rect x="4" y="4" width="56" height="56" rx="12" fill="url(#g)"/>
  <circle cx="32" cy="32" r="18" fill="#fff" opacity="0.95"/>
  <path d="M32 18l3.5 7.5L44 27l-6 5.5L39 40l-7-3.5L25 40l1-7.5L20 27l8.5-1.5z" fill="#10b981"/>
</svg>

